<svg xmlns="http://www.w3.org/2000/svg" viewBox="0 0 512 512" style="height: 512px; width: 512px;">
	<circle cx="256" cy="256" r="256" fill="#ebf0ef" fill-opacity="1" stroke="#ebf0ef" stroke-opacity="1" stroke-width="0"></circle>
	<g class="" transform="translate(0,0)" style="">
		<path d="
		M256 21A235 235 0 0 0 21 256a235 235 0 0 0 235 235 235 235 0 0 0 235-235A235 235 0 0 0 256 21z
		m0 82c84.393 0 153 68.607 153 153s-68.607 153-153 153-153-68.607-153-153 68.607-153 153-153z
		m0 18c-20.417 0-39.757 4.52-57.09 12.602C210.457 166.482 230.218 208 256 208c25.823 0 44.926-41.65 56.752-74.555C295.505 125.462 276.284 121 256 121z
		m98.752 42.88c-27.714 21.143-61.142 52.79-53.17 77.327 7.981 24.564 53.508 29.858 88.459 30.936.628-5.294.959-10.678.959-16.143 0-35.642-13.755-68.012-36.248-92.12z
		m-197.729.243C134.663 188.204 121 220.477 121 256c0 5.55.34 11.018.988 16.39 34.833-.825 80.381-6.793 88.344-31.3 7.974-24.542-25.68-55.553-53.309-76.967z
		M256 224a32 32 0 0 0-32 32 32 32 0 0 0 32 32 32 32 0 0 0 32-32 32 32 0 0 0-32-32z
	
		
		m-46.143 65.713c-21.59.104-50.24 16.832-72.424 31.928 19.029 34.168 52.46 59.164 92.143 66.837 9.99-33.39 18.42-78.618-2.446-93.777-4.854-3.527-10.737-5.02-17.273-4.988z
		m91.016.02c-6.58 0-12.492 1.516-17.346 5.042-20.895 15.181-11.863 60.106-2.088 93.678 39.687-7.715 73.108-32.76 92.1-66.973-22.006-15.224-50.935-31.747-72.666-31.748z
		" 
		fill="#575d72" fill-opacity="1"></path>
	</g>
</svg>